<svg width="24" height="39" viewBox="0 0 24 39" fill="none" xmlns="http://www.w3.org/2000/svg">
<path id="Vector" d="M12.845 17.1167C7.92668 15.8383 6.34501 14.5167 6.34501 12.4583C6.34501 10.0967 8.53335 8.45 12.195 8.45C16.0517 8.45 17.4817 10.2917 17.6117 13H22.4C22.2483 9.27333 19.9733 5.85 15.445 4.745V0H8.94501V4.68C4.74168 5.59 1.36168 8.32 1.36168 12.5017C1.36168 17.5067 5.50001 19.9983 11.545 21.45C16.9617 22.75 18.045 24.6567 18.045 26.6717C18.045 28.1667 16.9833 30.55 12.195 30.55C7.73168 30.55 5.97668 28.5567 5.73835 26H0.97168C1.23168 30.745 4.78501 33.41 8.94501 34.2983V39H15.445V34.3417C19.67 33.54 23.0283 31.0917 23.0283 26.65C23.0283 20.4967 17.7633 18.395 12.845 17.1167Z" fill="black"/>
</svg>
