<svg width="52" height="52" viewBox="0 0 52 52" fill="none" xmlns="http://www.w3.org/2000/svg">
<g id="Phone" clip-path="url(#clip0_1_14)">
<path id="Vector" d="M17.8981 21.038C18.5402 26.2911 20.8569 31.2314 24.4625 35.1155L29.1622 32.924C29.7389 32.6551 30.4167 32.7422 30.8964 33.1296C32.4396 34.3475 34.2207 35.3505 36.1627 36.0573C37.0241 36.3708 37.4723 37.3321 37.1588 38.1935L35.1694 43.6594C34.8559 44.5208 33.8946 44.969 33.0332 44.6555C18.327 39.3029 10.7465 23.0465 16.0992 8.34032C16.4127 7.47894 17.374 7.03068 18.2353 7.3442L23.7169 9.33932C24.5783 9.65284 25.0265 10.6141 24.713 11.4755C24.0005 13.4332 23.6297 15.4266 23.5707 17.3916C23.5435 18.0025 23.1959 18.5677 22.5977 18.8466L17.8981 21.038Z" fill="black"/>
</g>
<defs>
<clipPath id="clip0_1_14">
<rect width="40" height="40" fill="white" transform="translate(13.6808 0.365723) rotate(20)"/>
</clipPath>
</defs>
</svg>
